# xmcd
#
# Track frame offsets:
#	150
#	10193
#	22643
#	32633
#	45376
#	56094
#	66474
#	76667
#	87272
#	98297
#	107957
#	118525
#
# Disc length: 1728 seconds
#
# Revision: 0
# Processed by: cddbd v1.5.2PL0 Copyright (c) Steve Scherf et al.
# Submitted via: audiograbber 1.83.01
#
DISCID=8206be0c
DTITLE=Hank Thompson - Luckiest Heartache In Town
DYEAR=1965
DGENRE=Country
TTITLE0=Luckiest Heartache In Town
TTITLE1=Just To Ease The Pain
TTITLE2=Then I'll Start Believing In You
TTITLE3=Whatever Happened To Mary
TTITLE4=There My Future Goes
TTITLE5=I Wasn't Even In The Running
TTITLE6=Stirring Up The Ashes
TTITLE7=In The Back Of Your Mind
TTITLE8=You're Going Back To Your Old Ways Again
TTITLE9=Twice As Much
TTITLE10=What Made Her Change
TTITLE11=Total Strangers
EXTD=
EXTT0=
EXTT1=
EXTT2=
EXTT3=
EXTT4=
EXTT5=
EXTT6=
EXTT7=
EXTT8=
EXTT9=
EXTT10=
EXTT11=
PLAYORDER=
